<?xml version="1.0" encoding="UTF-8" standalone="no"?>
<svg width="216px" height="75px" viewBox="0 0 216 75" version="1.1" xmlns="http://www.w3.org/2000/svg" xmlns:xlink="http://www.w3.org/1999/xlink">
    <!-- Generator: Sketch 40.1 (33804) - http://www.bohemiancoding.com/sketch -->
    <title>Skadden_logo-01</title>
    <desc>Created with Sketch.</desc>
    <defs></defs>
    <g id="Page-1" stroke="none" stroke-width="1" fill="none" fill-rule="evenodd">
        <g id="Skadden_logo-01">
            <rect id="Rectangle-path" fill="#ED3327" x="0" y="0.2" width="216" height="74"></rect>
            <g id="Group" transform="translate(20.000000, 18.000000)" fill="#FFFFFF">
                <path d="M21,13.3 L20.1,13.3 C19.7,7.8 16.2,3.3 10.4,3.3 C7.4,3.3 4.3,5.6 4.3,8.7 C4.3,16 23.4,17.3 23.4,27.6 C23.4,33.1 19.1,37.7 12.4,37.7 C10,37.7 8.2,37.2 6.9,36.7 C5.5,36.2 4.4,35.8 3.2,35.8 C2,35.8 1.7,36.7 1.6,37.7 L0.7,37.7 L0.7,25.7 L1.6,25.7 C2.4,34.1 8.8,35.6 11.9,35.6 C15.4,35.6 18.9,33.8 18.9,29.9 C18.9,21.9 0.4,20.9 0.4,10.5 C0.4,5.1 5.2,1.2 10.7,1.2 C12.6,1.2 14.2,1.7 15.4,2.2 C16.7,2.7 17.7,3.2 18.4,3.2 C19.7,3.2 20,2.3 20.2,1.2 L21,1.2 L21,13.3 L21,13.3 Z" id="Shape"></path>
                <path d="M34.2,32.4 C34.2,35.5 35.4,35.9 37.8,35.9 L37.8,36.8 L26.3,36.8 L26.3,35.9 C28.7,35.8 29.9,35.5 29.9,32.4 L29.9,7.3 C29.9,3.7 28.8,3.7 28.1,3.7 C27.5,3.7 26.8,3.9 26.3,4.1 L26,3.2 L33.1,0.3 L34.3,0.3 L34.3,32.4 L34.2,32.4 Z M34.3,23.8 L41,17.7 C41.5,17.2 42.7,16.3 42.7,15.5 C42.7,14.4 41.6,14.3 40.8,14.3 L40.8,13.3 L51.1,13.3 L51.1,14.3 C47.6,14.3 46.4,15.1 44,17.4 L38.5,22.5 L45.7,31.5 C49.3,36 50.1,36 52.4,36 L52.4,36.9 L40.9,36.9 L40.9,36 C41.5,36 42.5,36 42.5,35 C42.5,34.4 42.1,33.8 41.8,33.4 L34.3,23.8 L34.3,23.8 Z" id="Shape"></path>
                <path d="M70.8,30.3 C70.8,32.7 70.8,34.4 72.1,34.4 C72.9,34.4 74.2,33 74.8,32.3 L74.8,33.8 C73.6,35.4 71.5,37.6 69.3,37.6 C67,37.6 66.5,35.7 66.5,33.8 C64.1,35.5 62.3,37.6 59.1,37.6 C55.5,37.6 53.5,34.9 53.5,31.4 C53.5,25.5 62.2,23.4 66.6,21.5 C66.6,17.5 66.3,14.1 62.3,14.1 C60.6,14.1 58.8,15.1 58.8,17.2 C58.8,19.7 58.3,20.9 56.6,20.9 C55.1,20.9 54.4,19.7 54.4,18.4 C54.4,17 55.9,12.5 63.1,12.5 C70.8,12.5 70.8,17.4 70.8,18.9 L70.8,30.3 L70.8,30.3 Z M66.5,23.1 C63,24.5 57.7,26.4 57.7,30.4 C57.7,32.5 59.1,34.7 61.4,34.7 C63,34.7 65.2,33.1 66.5,32.1 L66.5,23.1 L66.5,23.1 Z" id="Shape"></path>
                <path d="M93,7.3 C93,3.7 91.9,3.7 91.2,3.7 C90.6,3.7 89.9,3.9 89.4,4.1 L89,3.2 L96.1,0.3 L97.3,0.3 L97.3,30.6 C97.3,34.2 98.4,34.2 99.1,34.2 C99.7,34.2 100.4,34 100.9,33.8 L101.3,34.7 L94.2,37.6 L93,37.6 L93,34.2 C91,36.3 88.9,37.6 86,37.6 C79.8,37.6 76.5,31.5 76.5,26 C76.5,19.7 81,12.6 87.8,12.6 C89.7,12.6 91.6,13.2 93,14.6 L93,7.3 L93,7.3 Z M93,20.9 C93,17.7 91.1,14.2 87.5,14.2 C85.6,14.2 81.2,15.9 81.2,24.2 C81.2,30.6 84.4,34.8 88.4,34.8 C90.2,34.8 91.7,33.7 92.9,32.4 L92.9,20.9 L93,20.9 Z" id="Shape"></path>
                <path d="M119,7.3 C119,3.7 117.9,3.7 117.2,3.7 C116.6,3.7 115.9,3.9 115.4,4.1 L115,3.2 L122.1,0.3 L123.3,0.3 L123.3,30.6 C123.3,34.2 124.4,34.2 125.1,34.2 C125.7,34.2 126.4,34 126.9,33.8 L127.3,34.7 L120.2,37.6 L119,37.6 L119,34.2 C117,36.3 114.9,37.6 112,37.6 C105.8,37.6 102.5,31.5 102.5,26 C102.5,19.7 107,12.6 113.8,12.6 C115.7,12.6 117.6,13.2 119,14.6 L119,7.3 L119,7.3 Z M119,20.9 C119,17.7 117.1,14.2 113.5,14.2 C111.6,14.2 107.2,15.9 107.2,24.2 C107.2,30.6 110.4,34.8 114.4,34.8 C116.2,34.8 117.7,33.7 118.9,32.4 L118.9,20.9 L119,20.9 Z" id="Shape"></path>
                <path d="M132,22.2 C132,27.5 134.7,33.4 140.5,33.4 C144.3,33.4 146.3,31.2 147.6,27.8 L148.4,28.3 C147.5,33.1 144.1,37.6 138.8,37.6 C133.1,37.6 128.5,32.7 128.5,25.5 C128.5,18.7 131.9,12.6 139.4,12.6 C144.8,12.6 148.4,16.5 148.4,22.2 L132,22.2 L132,22.2 Z M143,20.7 C143,17.4 141.4,14.5 137.6,14.5 C134.5,14.5 132.3,17.6 132.1,20.7 L143,20.7 L143,20.7 Z" id="Shape"></path>
                <path d="M158.2,17.5 C161.2,14.2 163.2,12.6 166.2,12.6 C170.5,12.6 172.2,16.6 172.2,20.6 L172.2,32.5 C172.2,35.6 173.4,36 175.8,36 L175.8,36.9 L164.3,36.9 L164.3,36 C166.7,35.9 167.9,35.6 167.9,32.5 L167.9,21.5 C167.9,16.3 165.7,15.8 164.2,15.8 C161.8,15.8 160,17.4 158.2,19.2 L158.2,32.5 C158.2,35.6 159.4,36 161.8,36 L161.8,36.9 L150.3,36.9 L150.3,36 C152.7,35.9 153.9,35.6 153.9,32.5 L153.9,19.6 C153.9,16 152.8,16 152.1,16 C151.5,16 150.8,16.2 150.3,16.4 L149.9,15.5 L157,12.6 L158.2,12.6 L158.2,17.5 L158.2,17.5 Z" id="Shape"></path>
            </g>
        </g>
    </g>
</svg>